<svg xmlns="http://www.w3.org/2000/svg" width="960" height="540" viewBox="0 0 960 540">
  <rect width="960" height="540" fill="#fff"/>
  <text x="36" y="44" font-family="Arial" font-size="24" fill="#111827">Weekly Public Library Visitors by Age Group (2012 vs 2022)</text>
  <line x1="90" y1="470" x2="900" y2="470" stroke="#374151" stroke-width="2"/>
  <line x1="90" y1="110" x2="90" y2="470" stroke="#374151" stroke-width="2"/>
  <g font-family="Arial" font-size="12" fill="#374151">
    <text x="50" y="470">0</text><text x="45" y="410">20</text><text x="45" y="350">40</text><text x="45" y="290">60</text><text x="45" y="230">80</text><text x="38" y="170">100</text>
  </g>
  <g>
    <rect x="135" y="260" width="26" height="210" fill="#93c5fd"/><rect x="165" y="200" width="26" height="270" fill="#1d4ed8"/>
    <rect x="255" y="240" width="26" height="230" fill="#93c5fd"/><rect x="285" y="170" width="26" height="300" fill="#1d4ed8"/>
    <rect x="375" y="220" width="26" height="250" fill="#93c5fd"/><rect x="405" y="190" width="26" height="280" fill="#1d4ed8"/>
    <rect x="495" y="280" width="26" height="190" fill="#93c5fd"/><rect x="525" y="250" width="26" height="220" fill="#1d4ed8"/>
    <rect x="615" y="330" width="26" height="140" fill="#93c5fd"/><rect x="645" y="300" width="26" height="170" fill="#1d4ed8"/>
    <rect x="735" y="360" width="26" height="110" fill="#93c5fd"/><rect x="765" y="340" width="26" height="130" fill="#1d4ed8"/>
  </g>
  <g font-family="Arial" font-size="13" fill="#111827">
    <text x="122" y="500">10-19</text><text x="242" y="500">20-29</text><text x="362" y="500">30-39</text>
    <text x="482" y="500">40-49</text><text x="602" y="500">50-59</text><text x="722" y="500">60+</text>
  </g>
  <rect x="740" y="95" width="18" height="18" fill="#93c5fd"/><text x="765" y="109" font-family="Arial" font-size="13" fill="#111827">2012</text>
  <rect x="820" y="95" width="18" height="18" fill="#1d4ed8"/><text x="845" y="109" font-family="Arial" font-size="13" fill="#111827">2022</text>
</svg>