<svg xmlns="http://www.w3.org/2000/svg" width="960" height="540" viewBox="0 0 960 540">
  <rect width="960" height="540" fill="#ffffff"/>
  <text x="40" y="50" font-family="Arial" font-size="24" fill="#0f172a">Average Monthly Rainfall in Three Cities</text>
  <line x1="90" y1="460" x2="900" y2="460" stroke="#334155" stroke-width="2"/>
  <line x1="90" y1="120" x2="90" y2="460" stroke="#334155" stroke-width="2"/>
  <polyline fill="none" stroke="#16a34a" stroke-width="4" points="120,330 190,300 260,260 330,220 400,210 470,240 540,280 610,320 680,350 750,360 820,345 890,320"/>
  <polyline fill="none" stroke="#dc2626" stroke-width="4" points="120,220 190,210 260,230 330,260 400,300 470,330 540,350 610,360 680,340 750,300 820,250 890,230"/>
  <polyline fill="none" stroke="#2563eb" stroke-width="4" points="120,380 190,370 260,360 330,340 400,300 470,260 540,240 610,220 680,210 750,230 820,270 890,320"/>
  <text x="770" y="140" font-family="Arial" font-size="14" fill="#16a34a">City A</text>
  <text x="770" y="165" font-family="Arial" font-size="14" fill="#dc2626">City B</text>
  <text x="770" y="190" font-family="Arial" font-size="14" fill="#2563eb">City C</text>
</svg>