<svg xmlns="http://www.w3.org/2000/svg" width="960" height="540" viewBox="0 0 960 540">
  <rect width="960" height="540" fill="#ffffff"/>
  <text x="40" y="50" font-family="Arial, sans-serif" font-size="24" fill="#0f172a">Renewable Energy Use by Country (2010 vs 2020)</text>
  <line x1="90" y1="460" x2="900" y2="460" stroke="#334155" stroke-width="2"/>
  <line x1="90" y1="120" x2="90" y2="460" stroke="#334155" stroke-width="2"/>
  <rect x="140" y="300" width="28" height="160" fill="#93c5fd"/><rect x="174" y="230" width="28" height="230" fill="#2563eb"/>
  <rect x="280" y="280" width="28" height="180" fill="#93c5fd"/><rect x="314" y="190" width="28" height="270" fill="#2563eb"/>
  <rect x="420" y="260" width="28" height="200" fill="#93c5fd"/><rect x="454" y="160" width="28" height="300" fill="#2563eb"/>
  <rect x="560" y="330" width="28" height="130" fill="#93c5fd"/><rect x="594" y="250" width="28" height="210" fill="#2563eb"/>
  <rect x="700" y="290" width="28" height="170" fill="#93c5fd"/><rect x="734" y="210" width="28" height="250" fill="#2563eb"/>
  <text x="130" y="495" font-family="Arial" font-size="14" fill="#334155">A</text><text x="270" y="495" font-family="Arial" font-size="14" fill="#334155">B</text><text x="410" y="495" font-family="Arial" font-size="14" fill="#334155">C</text><text x="550" y="495" font-family="Arial" font-size="14" fill="#334155">D</text><text x="690" y="495" font-family="Arial" font-size="14" fill="#334155">E</text>
  <rect x="760" y="90" width="18" height="18" fill="#93c5fd"/><text x="786" y="104" font-family="Arial" font-size="14" fill="#334155">2010</text>
  <rect x="840" y="90" width="18" height="18" fill="#2563eb"/><text x="866" y="104" font-family="Arial" font-size="14" fill="#334155">2020</text>
</svg>