<svg xmlns="http://www.w3.org/2000/svg" width="960" height="540" viewBox="0 0 960 540">
  <rect width="960" height="540" fill="#eef2ff"/>
  <text x="36" y="44" font-family="Arial" font-size="24" fill="#111827">Airport Terminal: Current Layout and Proposed Redevelopment</text>
  <rect x="70" y="90" width="390" height="390" fill="#fff" stroke="#334155" stroke-width="2"/>
  <rect x="500" y="90" width="390" height="390" fill="#fff" stroke="#334155" stroke-width="2"/>
  <text x="215" y="120" font-family="Arial" font-size="16" fill="#111827">Current</text>
  <text x="650" y="120" font-family="Arial" font-size="16" fill="#111827">Proposed</text>
  <rect x="110" y="170" width="120" height="80" fill="#bfdbfe"/><text x="132" y="215" font-family="Arial" font-size="13" fill="#1e3a8a">Check-in</text>
  <rect x="260" y="170" width="150" height="80" fill="#fde68a"/><text x="305" y="215" font-family="Arial" font-size="13" fill="#854d0e">Security</text>
  <rect x="145" y="290" width="230" height="120" fill="#bbf7d0"/><text x="220" y="355" font-family="Arial" font-size="13" fill="#166534">Single Gate Hall</text>
  <rect x="535" y="155" width="130" height="80" fill="#bfdbfe"/><text x="560" y="200" font-family="Arial" font-size="13" fill="#1e3a8a">Check-in</text>
  <rect x="690" y="155" width="160" height="80" fill="#fde68a"/><text x="735" y="200" font-family="Arial" font-size="13" fill="#854d0e">Security</text>
  <rect x="535" y="265" width="315" height="70" fill="#e9d5ff"/><text x="650" y="307" font-family="Arial" font-size="13" fill="#6b21a8">Retail & Cafe Zone</text>
  <rect x="535" y="350" width="150" height="90" fill="#bbf7d0"/><text x="580" y="400" font-family="Arial" font-size="13" fill="#166534">Gate A</text>
  <rect x="700" y="350" width="150" height="90" fill="#bbf7d0"/><text x="745" y="400" font-family="Arial" font-size="13" fill="#166534">Gate B</text>
</svg>